<svg xmlns="http://www.w3.org/2000/svg" viewBox="0 0 60 59" width="60" height="59">
	<style>
		tspan { white-space:pre }
		.shp0 { fill: #000000 } 
	</style>
	<path id="Path_30" class="shp0" d="M29.75,0c2.86,0 5.69,0.57 8.33,1.67c2.64,1.1 5.04,2.71 7.07,4.74c2.03,2.03 3.64,4.45 4.74,7.1c1.11,2.66 1.68,5.51 1.7,8.39c2.1,0.04 4.11,0.9 5.58,2.41c1.47,1.51 2.3,3.55 2.3,5.67c0,2.12 -0.83,4.16 -2.3,5.67c-1.47,1.51 -3.48,2.38 -5.58,2.41l-5.75,0c-0.59,1.57 -1.39,3.04 -2.4,4.38c-1.01,1.33 -2.2,2.52 -3.54,3.51c-1.34,0.99 -2.82,1.78 -4.38,2.35c-1.57,0.56 -3.2,0.9 -4.86,0.99c1.6,0.33 2.92,1.48 3.47,3.03c0.55,1.55 0.24,3.28 -0.8,4.55c-1.04,1.27 -2.67,1.89 -4.29,1.64c-1.62,-0.25 -2.98,-1.34 -3.6,-2.87l-9.99,0c-0.99,0 -1.97,-0.2 -2.89,-0.58c-0.92,-0.38 -1.75,-0.94 -2.45,-1.65c-0.7,-0.71 -1.26,-1.55 -1.64,-2.47c-0.38,-0.92 -0.58,-1.91 -0.58,-2.91v-9.96c-2.1,-0.04 -4.11,-0.9 -5.58,-2.41c-1.47,-1.51 -2.3,-3.55 -2.3,-5.67c0,-2.12 0.83,-4.16 2.3,-5.67c1.47,-1.51 3.48,-2.38 5.58,-2.41c0.02,-2.88 0.6,-5.73 1.7,-8.39c1.11,-2.66 2.72,-5.07 4.74,-7.1c2.03,-2.03 4.43,-3.64 7.07,-4.74c2.64,-1.1 5.47,-1.67 8.33,-1.67zM29.75,3.51c-2.4,0 -4.78,0.48 -7,1.4c-2.22,0.92 -4.24,2.28 -5.94,3.98c-1.7,1.71 -3.06,3.73 -3.99,5.96c-0.93,2.23 -1.42,4.62 -1.44,7.04h1.56c0.38,-1.59 1.02,-3.1 1.89,-4.48c0.87,-1.38 1.97,-2.6 3.24,-3.61c1.27,-1.01 2.7,-1.8 4.24,-2.34c1.53,-0.54 3.14,-0.81 4.76,-0.81l5.35,0c1.62,0 3.23,0.28 4.76,0.81c1.53,0.54 2.96,1.33 4.24,2.34c1.27,1.01 2.37,2.23 3.24,3.61c0.87,1.38 1.51,2.89 1.89,4.48h1.56c-0.02,-2.42 -0.51,-4.81 -1.44,-7.04c-0.93,-2.23 -2.29,-4.26 -3.99,-5.96c-1.7,-1.71 -3.72,-3.06 -5.94,-3.98c-2.22,-0.92 -4.6,-1.4 -7,-1.4zM27.08,14.17c-1.45,0 -2.88,0.29 -4.22,0.85c-1.34,0.56 -2.56,1.38 -3.58,2.41c-1.02,1.03 -1.84,2.26 -2.39,3.61c-0.56,1.35 -0.84,2.8 -0.84,4.26l0,6.68c0,3.67 1.44,7.18 4.02,9.77c2.57,2.59 6.06,4.05 9.7,4.05c3.64,0 7.13,-1.46 9.7,-4.05c2.57,-2.59 4.02,-6.11 4.02,-9.77v-6.68c0,-1.46 -0.29,-2.91 -0.84,-4.26c-0.56,-1.35 -1.37,-2.58 -2.39,-3.61c-1.02,-1.03 -2.24,-1.85 -3.58,-2.41c-1.34,-0.56 -2.77,-0.85 -4.22,-0.85zM11.39,34.56h1.16v-9.14h-1.16zM46.95,25.42v9.14h1.16v-9.14zM7.9,25.42c-1.18,0.03 -2.31,0.52 -3.14,1.37c-0.83,0.85 -1.29,2 -1.29,3.19c0,1.19 0.46,2.34 1.29,3.19c0.83,0.85 1.95,1.35 3.14,1.37zM51.6,34.55c1.18,-0.03 2.31,-0.52 3.14,-1.37c0.83,-0.85 1.29,-2 1.29,-3.19c0,-1.19 -0.46,-2.34 -1.29,-3.19c-0.83,-0.85 -1.95,-1.35 -3.14,-1.37zM38.05,38.35c-1.09,1.1 -2.38,1.97 -3.81,2.56c-1.42,0.59 -2.95,0.9 -4.49,0.9c-1.54,0 -3.07,-0.31 -4.49,-0.9c-1.42,-0.59 -2.72,-1.47 -3.81,-2.56l2.47,-2.49c0.77,0.77 1.68,1.38 2.68,1.8c1,0.42 2.07,0.63 3.16,0.63c1.08,0 2.16,-0.22 3.16,-0.63c1,-0.42 1.91,-1.03 2.68,-1.8zM11.39,48.03c0,0.54 0.11,1.07 0.31,1.57c0.2,0.5 0.5,0.95 0.88,1.33c0.38,0.38 0.83,0.68 1.32,0.89c0.49,0.21 1.02,0.31 1.56,0.31h9.99c0.14,-0.36 0.33,-0.7 0.56,-1.01c0.23,-0.31 0.49,-0.59 0.78,-0.84c0.29,-0.25 0.62,-0.46 0.96,-0.62c0.35,-0.17 0.71,-0.29 1.08,-0.37c-1.66,-0.09 -3.3,-0.43 -4.86,-0.99c-1.57,-0.56 -3.04,-1.35 -4.38,-2.35c-1.34,-0.99 -2.53,-2.17 -3.54,-3.51c-1.01,-1.34 -1.81,-2.81 -2.4,-4.38h-2.26zM29.75,52.71c-0.08,0 -0.15,0.01 -0.22,0.02c-0.07,0.01 -0.15,0.04 -0.21,0.07c-0.07,0.03 -0.14,0.06 -0.2,0.11c-0.06,0.04 -0.12,0.09 -0.17,0.14v1.67c0.28,0.27 0.67,0.39 1.05,0.31c0.38,-0.08 0.7,-0.34 0.84,-0.7c0.15,-0.36 0.1,-0.77 -0.11,-1.1c-0.22,-0.32 -0.58,-0.52 -0.97,-0.52z" />
</svg>