<svg xmlns="http://www.w3.org/2000/svg" width="66.26" height="58.208" viewBox="0 0 66.26 58.208">
  <g id="Group_64" data-name="Group 64" transform="translate(-795.445 -908.672)">
    <g id="Group_63" data-name="Group 63">
      <path id="Path_38" data-name="Path 38" d="M850.332,925.426a2.447,2.447,0,0,0-3.461,3.461l8.9,8.9-8.9,8.9a2.39,2.39,0,0,0,0,3.462,2.389,2.389,0,0,0,3.461,0l10.632-10.631a2.392,2.392,0,0,0,0-3.462Z"/>
      <path id="Path_39" data-name="Path 39" d="M837.641,908.779a2.43,2.43,0,0,0-3.05,1.73l-15.164,53.239a2.43,2.43,0,0,0,1.731,3.049,1.8,1.8,0,0,0,.659.083,2.547,2.547,0,0,0,2.39-1.814l15.082-53.238A2.383,2.383,0,0,0,837.641,908.779Z"/>
      <path id="Path_40" data-name="Path 40" d="M810.28,925.426a2.39,2.39,0,0,0-3.462,0l-10.631,10.631a2.39,2.39,0,0,0,0,3.462l10.631,10.631a2.39,2.39,0,0,0,3.462,0,2.39,2.39,0,0,0,0-3.462l-8.9-8.9,8.9-8.9A2.389,2.389,0,0,0,810.28,925.426Z"/>
    </g>
  </g>
</svg>
