<svg xmlns="http://www.w3.org/2000/svg" viewBox="0 0 59 59" width="59" height="59">
	<style>
		tspan { white-space:pre }
		.shp0 { fill: #000000 } 
	</style>
	<g id="Group_60">
		<path id="Path_32" class="shp0" d="M13.63,36.01c-0.13,0 -0.25,0.03 -0.37,0.07c-0.12,0.05 -0.23,0.12 -0.32,0.21c-0.09,0.09 -0.16,0.2 -0.21,0.32c-0.05,0.12 -0.07,0.24 -0.07,0.37l0,4.87c-0.01,0.26 0.09,0.52 0.28,0.71c0.18,0.19 0.43,0.29 0.7,0.29c0.26,0 0.51,-0.11 0.7,-0.29c0.18,-0.19 0.28,-0.44 0.28,-0.71v-4.86c0,-0.13 -0.02,-0.25 -0.07,-0.37c-0.05,-0.12 -0.12,-0.23 -0.21,-0.32c-0.09,-0.09 -0.2,-0.16 -0.32,-0.21c-0.12,-0.05 -0.24,-0.07 -0.37,-0.07z" />
		<path id="Path_33" class="shp0" d="M57.42,10.71c0.13,0 0.25,0.03 0.37,0.07c0.12,0.05 0.23,0.12 0.32,0.21c0.09,0.09 0.16,0.2 0.21,0.32c0.05,0.12 0.07,0.24 0.07,0.37l0,35.04c0,0.13 -0.03,0.25 -0.07,0.37c-0.05,0.12 -0.12,0.23 -0.21,0.32c-0.09,0.09 -0.2,0.16 -0.32,0.21c-0.12,0.05 -0.24,0.07 -0.37,0.07h-36.01v2.92c0.02,2.08 -0.79,4.08 -2.25,5.55c-1.46,1.48 -3.45,2.31 -5.53,2.31c-2.08,0 -4.07,-0.83 -5.53,-2.31c-1.46,-1.48 -2.27,-3.48 -2.25,-5.55v-2.92h-4.87c-0.13,0 -0.25,-0.03 -0.37,-0.07c-0.12,-0.05 -0.23,-0.12 -0.32,-0.21c-0.09,-0.09 -0.16,-0.2 -0.21,-0.32c-0.05,-0.12 -0.07,-0.24 -0.07,-0.37v-35.04c0,-0.13 0.02,-0.25 0.07,-0.37c0.05,-0.12 0.12,-0.23 0.21,-0.32c0.09,-0.09 0.2,-0.16 0.32,-0.21c0.12,-0.05 0.24,-0.07 0.37,-0.07h45.74l0,-9.73c0,-0.13 0.03,-0.25 0.07,-0.37c0.05,-0.12 0.12,-0.23 0.21,-0.32c0.09,-0.09 0.2,-0.16 0.32,-0.21c0.12,-0.05 0.24,-0.07 0.37,-0.07h5.84c0.13,0 0.25,0.02 0.37,0.07c0.12,0.05 0.23,0.12 0.32,0.21c0.09,0.09 0.16,0.2 0.21,0.32c0.05,0.12 0.07,0.24 0.07,0.37v9.73zM52.56,5.84h-3.89v19.47h3.89zM56.44,12.65h-1.95v13.63c0,0.01 -0.01,0.03 -0.01,0.04c0,0.03 0,0.06 -0.01,0.08c0,0.03 -0.01,0.06 -0.01,0.08c-0.01,0.03 -0.01,0.05 -0.02,0.08c-0.01,0.03 -0.02,0.05 -0.03,0.08v0.01l-2.92,6.81c-0.08,0.18 -0.2,0.32 -0.36,0.43c-0.16,0.1 -0.35,0.16 -0.54,0.16c-0.19,0 -0.38,-0.06 -0.54,-0.16c-0.16,-0.1 -0.28,-0.25 -0.36,-0.43l-2.92,-6.81l0,-0.01c-0.01,-0.03 -0.02,-0.05 -0.03,-0.08c-0.01,-0.03 -0.01,-0.05 -0.02,-0.08c-0.01,-0.03 -0.01,-0.06 -0.01,-0.08c0,-0.03 -0.01,-0.06 -0.01,-0.08c0,-0.01 -0.01,-0.03 -0.01,-0.04v-13.63h-37.96v5.84c0,0.13 -0.03,0.25 -0.07,0.37c-0.05,0.12 -0.12,0.23 -0.21,0.32c-0.09,0.09 -0.2,0.16 -0.32,0.21c-0.12,0.05 -0.24,0.07 -0.37,0.07h-5.84v26.28h3.89v-6.81c-0.02,-2.08 0.79,-4.08 2.25,-5.55c1.46,-1.48 3.45,-2.31 5.53,-2.31c2.08,0 4.07,0.83 5.53,2.31c1.46,1.48 2.27,3.48 2.25,5.55v6.82h35.04zM48.66,3.89h3.89v-1.94h-3.89zM1.95,12.65v3.49l3.49,-3.49zM3.32,17.52h3.49v-3.49zM19.46,38.93c0,-1.55 -0.62,-3.03 -1.71,-4.13c-1.1,-1.1 -2.58,-1.71 -4.13,-1.71c-1.55,0 -3.03,0.62 -4.13,1.71c-1.1,1.1 -1.71,2.58 -1.71,4.13l0,11.68c0,1.55 0.62,3.03 1.71,4.13c1.1,1.1 2.58,1.71 4.13,1.71c1.55,0 3.03,-0.62 4.13,-1.71c1.1,-1.1 1.71,-2.58 1.71,-4.13zM49.17,27.25l1.44,3.37l1.44,-3.37z" />
		<path id="Path_34" class="shp0" d="M53.53,41.85h-1.95c-0.27,-0.01 -0.53,0.08 -0.72,0.27c-0.19,0.18 -0.3,0.44 -0.3,0.71c0,0.27 0.11,0.52 0.3,0.71c0.19,0.18 0.46,0.28 0.72,0.27h1.95c0.27,0.01 0.53,-0.08 0.72,-0.27c0.19,-0.18 0.3,-0.44 0.3,-0.71c0,-0.27 -0.11,-0.52 -0.3,-0.71c-0.19,-0.18 -0.46,-0.28 -0.72,-0.27z" />
		<path id="Path_35" class="shp0" d="M47.69,41.85h-1.95c-0.27,-0.01 -0.53,0.08 -0.72,0.27c-0.19,0.18 -0.3,0.44 -0.3,0.71c0,0.27 0.11,0.52 0.3,0.71c0.19,0.18 0.46,0.28 0.72,0.27h1.95c0.27,0.01 0.53,-0.08 0.72,-0.27c0.19,-0.18 0.3,-0.44 0.3,-0.71c0,-0.27 -0.11,-0.52 -0.3,-0.71c-0.19,-0.18 -0.46,-0.28 -0.72,-0.27z" />
		<path id="Path_36" class="shp0" d="M39.68,17.88c-0.08,-0.1 -0.18,-0.18 -0.29,-0.24c-0.11,-0.06 -0.24,-0.1 -0.36,-0.11c-0.13,-0.01 -0.26,0 -0.38,0.04c-0.12,0.04 -0.24,0.1 -0.33,0.18l-10.06,8.23l-9.11,-8.2c-0.08,-0.07 -0.17,-0.13 -0.27,-0.17c-0.1,-0.04 -0.21,-0.07 -0.32,-0.07c-0.11,-0.01 -0.22,0 -0.32,0.03c-0.1,0.03 -0.2,0.08 -0.29,0.14l-12.65,8.76c-0.22,0.14 -0.37,0.36 -0.42,0.62c-0.05,0.25 0,0.52 0.14,0.73c0.14,0.22 0.36,0.37 0.62,0.42c0.25,0.05 0.52,0 0.73,-0.14l0.04,-0.03l12.02,-8.32l9.16,8.24c0.09,0.08 0.18,0.14 0.29,0.18c0.11,0.04 0.22,0.07 0.34,0.07c0.12,0 0.23,-0.01 0.34,-0.05c0.11,-0.04 0.21,-0.09 0.3,-0.17l10.71,-8.76c0.1,-0.08 0.18,-0.18 0.24,-0.29c0.06,-0.11 0.1,-0.24 0.11,-0.36c0.01,-0.13 0,-0.26 -0.04,-0.38c-0.04,-0.12 -0.1,-0.24 -0.18,-0.34z" />
		<path id="Path_37" class="shp0" d="M41.7,38.42c0.09,0.15 0.14,0.32 0.15,0.49c0,0.17 -0.04,0.35 -0.12,0.5c-0.08,0.15 -0.21,0.28 -0.36,0.37c-0.15,0.09 -0.32,0.13 -0.49,0.13h-9.73c-0.17,0 -0.35,-0.05 -0.5,-0.13c-0.15,-0.09 -0.27,-0.21 -0.36,-0.37c-0.08,-0.15 -0.13,-0.32 -0.12,-0.5c0,-0.17 0.06,-0.34 0.15,-0.49l4.87,-7.79c0.02,-0.02 0.03,-0.05 0.05,-0.07c0.02,-0.02 0.04,-0.04 0.06,-0.06c0.02,-0.02 0.04,-0.04 0.06,-0.06c0.02,-0.02 0.05,-0.04 0.07,-0.05c0.11,-0.08 0.23,-0.13 0.36,-0.16c0.13,-0.03 0.26,-0.03 0.39,-0.01c0.13,0.02 0.26,0.07 0.37,0.14c0.11,0.07 0.21,0.16 0.29,0.27zM39.13,37.96l-3.11,-4.98l-3.11,4.98z" />
	</g>
</svg>