<svg xmlns="http://www.w3.org/2000/svg" viewBox="0 0 37 59" width="37" height="59">
	<style>
		tspan { white-space:pre }
		.shp0 { fill: none;stroke: #020202;stroke-linecap:round;stroke-width: 3.169 } 
	</style>
	<g id="Group_58">
		<path id="Path_31" class="shp0" d="M25.25,44.52c0,-10.19 4.77,-13.41 4.77,-13.41c6.62,-6.71 6.95,-17.78 0.33,-24.48c-1.57,-1.59 -3.44,-2.86 -5.5,-3.72c-2.06,-0.86 -4.26,-1.31 -6.49,-1.31c-2.23,0 -4.43,0.44 -6.49,1.31c-2.06,0.86 -3.93,2.13 -5.5,3.72c-6.62,6.71 -6.29,17.78 0.33,24.48c0,0 4.77,3.22 4.77,13.41z" />
		<path id="Line_21" class="shp0" d="M21.54,57.4h-6.36" />
		<path id="Line_22" class="shp0" d="M13.07,50.96h10.6" />
		<path id="Line_23" class="shp0" d="M24.72,23.06h-12.71" />
		<path id="Line_24" class="shp0" d="M18.36,23.06v20.93" />
	</g>
</svg>