<svg xmlns="http://www.w3.org/2000/svg" width="162.163" height="32" viewBox="0 0 162.163 32">
  <g id="Group_78" data-name="Group 78" transform="translate(-5258.25 -3613.5)">
    <g id="Group_75" data-name="Group 75">
      <path id="Path_60" data-name="Path 60" d="M5258.25,3645.5H5294.2l-17.973-31.026Zm3.9-2.25,14.069-24.288,14.068,24.288Z" fill="#fff"/>
    </g>
    <g id="Group_76" data-name="Group 76">
      <path id="Path_61" data-name="Path 61" d="M5300.806,3644.526l17.974-31.026h-35.947Zm0-4.49-14.068-24.286h28.137Z" fill="#fff"/>
    </g>
    <g id="Group_77" data-name="Group 77">
      <path id="Path_62" data-name="Path 62" d="M5321.911,3642.861l5.295-13.786h1.965l5.643,13.786h-2.078l-1.609-4.2h-5.764l-1.514,4.2Zm3.978-5.661h4.674l-1.438-3.818q-.658-1.74-.979-2.859a17.407,17.407,0,0,1-.743,2.633Z" fill="#fff"/>
      <path id="Path_63" data-name="Path 63" d="M5335.237,3630.7v-1.627h10.928v1.627H5341.6v12.159h-1.825V3630.7Z" fill="#fff"/>
      <path id="Path_64" data-name="Path 64" d="M5347.482,3636.143a7.484,7.484,0,0,1,1.843-5.372,6.272,6.272,0,0,1,4.759-1.941,6.605,6.605,0,0,1,3.442.912,5.961,5.961,0,0,1,2.337,2.542,8.252,8.252,0,0,1,.8,3.7,8.126,8.126,0,0,1-.847,3.755,5.778,5.778,0,0,1-2.4,2.508,6.843,6.843,0,0,1-3.348.852,6.508,6.508,0,0,1-3.479-.942,6.046,6.046,0,0,1-2.323-2.568A7.787,7.787,0,0,1,5347.482,3636.143Zm1.881.028a5.535,5.535,0,0,0,1.34,3.93,4.674,4.674,0,0,0,6.752-.015,5.864,5.864,0,0,0,1.331-4.113,7.077,7.077,0,0,0-.569-2.942,4.374,4.374,0,0,0-1.665-1.948,4.509,4.509,0,0,0-2.459-.691,4.658,4.658,0,0,0-3.334,1.332Q5349.363,3633.055,5349.363,3636.171Z" fill="#fff"/>
      <path id="Path_65" data-name="Path 65" d="M5362.961,3642.861v-13.786h2.728l3.267,9.762q.451,1.364.659,2.04.235-.751.734-2.21l3.3-9.592h2.437v13.786h-1.74v-11.539l-4.01,11.539h-1.648l-3.991-11.736v11.736Z" fill="#fff"/>
      <path id="Path_66" data-name="Path 66" d="M5377.811,3629.075h1.881l2.094,9.037q.339,1.422.583,2.822.525-2.211.62-2.549l2.62-9.31h2.2l1.975,6.978a37.167,37.167,0,0,1,1.072,4.881q.262-1.307.687-3l2.162-8.859h1.825l-3.77,13.786h-1.769l-2.923-10.5q-.363-1.318-.428-1.619-.216.951-.4,1.617l-2.907,10.5h-1.851Z" fill="#fff"/>
      <path id="Path_67" data-name="Path 67" d="M5397.278,3642.861v-13.786h9.969v1.627H5399.1v4.213h7.626v1.627H5399.1v4.692h8.463v1.627Z" fill="#fff"/>
      <path id="Path_68" data-name="Path 68" d="M5410.012,3642.861v-13.786h5.167a6.391,6.391,0,0,1,2.532.418,3.258,3.258,0,0,1,1.494,1.288,3.4,3.4,0,0,1,.54,1.821,3.141,3.141,0,0,1-.477,1.664,3.417,3.417,0,0,1-1.441,1.26,3.593,3.593,0,0,1,1.916,1.251,3.363,3.363,0,0,1,.67,2.087,4.028,4.028,0,0,1-.409,1.8,3.478,3.478,0,0,1-1.01,1.283,4.212,4.212,0,0,1-1.508.682,9.149,9.149,0,0,1-2.222.23Zm1.824-7.993h2.981a6.682,6.682,0,0,0,1.74-.16,1.933,1.933,0,0,0,1.049-.687,1.976,1.976,0,0,0,.353-1.2,2.212,2.212,0,0,0-.33-1.208,1.664,1.664,0,0,0-.94-.714,7.84,7.84,0,0,0-2.1-.193h-2.756Zm0,6.366h3.433a7.915,7.915,0,0,0,1.241-.065,2.977,2.977,0,0,0,1.053-.376,1.987,1.987,0,0,0,.7-.767,2.4,2.4,0,0,0,.273-1.162,2.3,2.3,0,0,0-.4-1.34,2.087,2.087,0,0,0-1.1-.8,6.751,6.751,0,0,0-2.018-.231h-3.188Z" fill="#fff"/>
    </g>
  </g>
</svg>
